<svg viewBox="0 0 40 40" fill="none" xmlns="http://www.w3.org/2000/svg">
  <defs>
    <linearGradient id="logoGradient" x1="0%" y1="0%" x2="100%" y2="100%">
      <stop offset="0%" style="stop-color:#4f46e5;stop-opacity:1" />
      <stop offset="50%" style="stop-color:#7c3aed;stop-opacity:1" />
      <stop offset="100%" style="stop-color:#db2777;stop-opacity:1" />
    </linearGradient>
  </defs>
  
  <!-- Location pin base -->
  <path d="M20 4C14.5 4 10 8.5 10 14c0 8 10 20 10 20s10-12 10-20c0-5.5-4.5-10-10-10z" 
        fill="url(#logoGradient)" fill-opacity="0.1" stroke="url(#logoGradient)" stroke-width="1.5"/>
  
  <!-- Door opening effect -->
  <rect x="16" y="12" width="8" height="12" rx="1" fill="url(#logoGradient)" fill-opacity="0.8"/>
  <rect x="18" y="14" width="4" height="8" rx="0.5" fill="white" fill-opacity="0.9"/>
  
  <!-- Calgary mountain silhouette (subtle) -->
  <path d="M8 30 L12 24 L16 28 L20 22 L24 26 L28 20 L32 28 L32 30 Z" 
        fill="url(#logoGradient)" fill-opacity="0.3"/>
  
  <!-- Door handle -->
  <circle cx="21" cy="18" r="0.8" fill="url(#logoGradient)"/>
  
  <!-- Location pin center -->
  <circle cx="20" cy="14" r="2" fill="url(#logoGradient)"/>
  <circle cx="20" cy="14" r="1" fill="white"/>
</svg>